<svg id="Capa_1" data-name="Capa 1" xmlns="http://www.w3.org/2000/svg" xmlns:xlink="http://www.w3.org/1999/xlink" viewBox="0 0 1502.36 1502.36"><defs><style>.cls-1{fill:none;}.cls-2{clip-path:url(#clip-path);}.cls-3{fill:#18294f;}.cls-4{fill:#e6f5fe;}.cls-5{fill:#f7b6a0;}.cls-6{fill:#f2937c;}.cls-7{fill:#21263d;}.cls-8{fill:#416e93;}.cls-9{fill:#fff;}.cls-10{fill:#cde0eb;}.cls-11{fill:#93b2c4;}.cls-12{fill:#a6cadf;}.cls-13{fill:#6e9fb7;}</style><clipPath id="clip-path"><circle class="cls-1" cx="751.18" cy="751.18" r="751.18"/></clipPath></defs><title>Artboard 48 copy</title><g class="cls-2"><path class="cls-3" d="M587.61,124.88S371,176.21,362.45,481.11L351.75,1715s342,171.29,677.51-18.35L991.17,293S965.94,51.72,587.61,124.88Z"/><path class="cls-4" d="M1370.09,1956.76H1024.33c-64.95-341.47-83.58-435.34-115.72-636.89,0,0-75.49-259,59.64-345.3h10.48s166.51,33.57,228.36,214.84C1207.09,1189.41,1350.17,1545.91,1370.09,1956.76Z"/><path class="cls-5" d="M1024.33,1956.76c133.29-486.41-8.64-965.89-8.64-965.89C877,949.18,806.06,943,806.06,943L586.28,968.44s-218.06,78.86-384.6,194.23l312.69,794.09Z"/><polygon class="cls-5" points="809.03 983.17 559.86 983.54 559.28 614.11 808.43 613.71 809.03 983.17"/><path class="cls-6" d="M627.53,815.37c-33.46-61.09-43.64-127.87-47.82-201.3l228.72-.36.51,321.11C743.33,922.94,661.42,877.15,627.53,815.37Z"/><path class="cls-5" d="M448.51,528c-.47,45.8,25.26,97.56,66.58,116.35,56,25.52,77.23-25.89,77-76-.23-40.43-18.34-110-64.22-124.06C484.59,430.92,448.84,490.44,448.51,528Z"/><path class="cls-5" d="M563.81,651.86c26.55,65.86,62.66,119.84,125,157.69,61,37,123.87,55.84,182.35,7.09,46.49-38.77,76.45-95.15,93.15-151.88,38.44-130.6,7.75-311-75.67-415.64-91.64-115-267.39-88.43-334.74,40.68C499,394.94,520.88,545.57,563.81,651.86Z"/><path class="cls-6" d="M516.11,604.59a8.55,8.55,0,0,1-8.24-10.81c11.36-41.47,3.45-82.74-18-93.93a8.55,8.55,0,0,1,7.89-15.17c29.29,15.25,40.47,63.05,26.63,113.62A8.57,8.57,0,0,1,516.11,604.59Z"/><path class="cls-6" d="M474,540.87a8.56,8.56,0,0,1-3.41-16.4c7.51-3.26,33.31-13,51.14-2a8.56,8.56,0,0,1-9,14.56c-8-4.94-23.91-1.83-35.3,3.14A8.59,8.59,0,0,1,474,540.87Z"/><path class="cls-7" d="M877,496.53c.87,14.49,8.63,25.83,17.37,25.26s15-12.75,14.12-27.23-8.7-25.82-17.43-25.26S876.11,482,877,496.53Z"/><path class="cls-7" d="M688.48,508.37c.88,14.49,8.67,25.82,17.36,25.25s15-12.74,14.11-27.24-8.66-25.82-17.39-25.26S687.55,493.85,688.48,508.37Z"/><path class="cls-6" d="M820.87,622.26a8.56,8.56,0,0,1-1.15-17c25.17-3.52,34.1-14.82,36.23-18.21a11.48,11.48,0,0,0,2.13-6.64c-3.24-2.44-13.36-6.58-19-8.89-10.25-4.24-15.75-6.59-18.77-9.65-11.09-11.33-15.32-24.57-23.8-74.52a8.55,8.55,0,0,1,7-9.85,8.7,8.7,0,0,1,9.86,7c8.12,47.79,11.72,57.8,19.16,65.39,1.31,1,8.37,3.87,13.06,5.8,16.66,6.85,26.21,11.09,28.55,18.5,2.17,6.9.84,14.71-3.75,22-8.48,13.42-26.1,22.92-48.33,26A10,10,0,0,1,820.87,622.26Z"/><path class="cls-6" d="M661.85,572.09c.6,10.3,20.07,17.5,43.39,16s41.73-11,41-21.31-20.09-17.45-43.37-16S661.19,561.79,661.85,572.09Z"/><path class="cls-6" d="M870.05,559c.63,10.3,20.06,17.48,43.39,16s41.69-11,41.08-21.34-20.1-17.47-43.42-16S869.38,548.74,870.05,559Z"/><path class="cls-3" d="M663.29,474.81a12.55,12.55,0,0,1-7.31-2.32,12.77,12.77,0,0,1-3.15-17.81c17.56-25.11,65.35-31.53,93-12.46a12.8,12.8,0,0,1-14.54,21.07c-17-11.71-48.77-6.4-57.5,6.06A12.79,12.79,0,0,1,663.29,474.81Z"/><path class="cls-3" d="M853.81,462.86a12.8,12.8,0,0,1-10.46-20.14c17.55-25.12,65.35-31.51,93-12.48a12.8,12.8,0,0,1-14.53,21.08c-17-11.72-48.8-6.39-57.53,6.07A12.74,12.74,0,0,1,853.81,462.86Z"/><path class="cls-3" d="M588.93,536.8c-35.24-20-41.49-39.42-47.52-35.79h0c-2.5-23.39-18.19-43.45-46-44.4-19.86-.69-38.84,29.5-44.49,49.57-1.38-21.09-1-51.42-1.37-73.94A510.59,510.59,0,0,1,453.05,366c6-51.05,9.91-79.07,34.09-127,26-51.65,66.82-91.72,124.77-106.45,70-17.8,184.26-32.46,243.88,10.34,30.54,22,5.19,27.63.92,123.71C856.71,266.59,582.16,201.26,588.93,536.8Z"/><path class="cls-3" d="M968.11,426.87C1005,340.66,1018,194.68,858.59,137.33c-39.13-14.09-134.69-23-166.33,11.86-70.07,77.22,87.65,107.68,129.89,111.89C889.42,267.79,935.18,286.17,968.11,426.87Z"/><path class="cls-6" d="M777.92,678.1c-31.55,0-56.32-21.41-66.38-47.07a8.56,8.56,0,0,1,15.93-6.26c9.47,24.16,35.79,43.39,67.9,33.45a8.55,8.55,0,1,1,5.06,16.34A75.42,75.42,0,0,1,777.92,678.1Z"/><path class="cls-3" d="M587.75,407.15s49.09-28.89,159.94-35.82l27.93-64.86,5.87,63.93,70.14-1.9c7-.19,12.39-31.84,12.39-31.84l12.13,31.18s67,2.11,99.55,1.23c0,0-.86-199.35-232.7-170.87C743,198.2,582.13,210.44,587.75,407.15Z"/><path class="cls-8" d="M235.25,1714.69c7.23,17.67,76.61,134.87,144.12,242.07h814.36c63.71-187.08,109.64-379.16,62-519.15-96.41-227.4-240-446.74-240-446.74l-45.75-15.21C1045.27,1246.3,769,1252,580.81,1166.16c-19.31-8.81-180-119-191.2-113.35-.22.13-58.49,28.2-58.49,28.2,127.22,99.33,88.42,255.28,74.41,343.58C382.64,1568.62,206.83,1645.28,235.25,1714.69Z"/><path class="cls-9" d="M241,1956.76H684.08l54.48-525.69C606.15,1100,507.76,999.8,507.76,999.8c-482.82,162.29-365,446.12-365,446.12Z"/><path class="cls-9" d="M980.71,1956.76h265.88l38.64-422.14c-7-227.39-269.54-543.75-269.54-543.75-73.94-31.17-161.87-41.69-161.87-41.69L980.71,1390Z"/><path class="cls-10" d="M601.31,1928.55a8.51,8.51,0,0,1-8.5-8c-6.2-101.75-19.25-190.89-33.07-285.25-2.79-19.08-5.63-38.45-8.45-58.27-.07-41.9,19.66-72,42.68-102a13.66,13.66,0,0,1-3.19-9.22,14.44,14.44,0,0,1,.18-2c-37.23,5.48-75.5,6.18-90.5-38.82-9.73-67.19-14.07-128.85-18.25-188.48-3.46-49.39-7-100.48-13.48-154.22a8.53,8.53,0,1,1,16.94-2c6.49,54.17,10.09,105.47,13.57,155.07C503.4,1294.59,507.71,1356,517,1421c11.44,33.94,40.12,31.13,86.08,23.56,6.62-1.1,13.3-2.2,19.89-3.09a8.17,8.17,0,0,1,4.11.44h0l0,0h0s0,0,.05,0h0s0,.08,0,0l.05,0h0s0,0,0,0h0a7.22,7.22,0,0,1,1.11.56h0s0,0,0,0h0s0,0,0,0h0s0,0,0,0h0s0,0,0,0h0a8.34,8.34,0,0,1,2.52,2.5,7.36,7.36,0,0,1,.51.87v0l0,0h0a8.58,8.58,0,0,1,.86,3.66h0v0h0a8.86,8.86,0,0,1-.18,1.85h0v0a9.27,9.27,0,0,1-.56,1.66c-5.83,13.48-12.26,20.22-17.79,23.48-23.91,30.65-45.88,60-45.88,98.93,2.74,18.59,5.59,37.94,8.37,57,13.86,94.74,27,184.22,33.2,286.73a8.53,8.53,0,0,1-8,9A4.43,4.43,0,0,1,601.31,1928.55Z"/><path class="cls-10" d="M1053,1933.16a7.17,7.17,0,0,1-1.24-.09,8.56,8.56,0,0,1-7.23-9.67c3.3-22.49,7-45.3,10.85-68.26,17.44-105.55,35.48-214.68,7.94-311.14a7.85,7.85,0,0,1-.33-2.35c0-24.49-20.78-49.81-56.81-70.49-7.67,1.17-18.22-2.52-29.9-15.37a8.14,8.14,0,0,1-.54-.63h0a9.73,9.73,0,0,1-1.13-2v0h0a8.57,8.57,0,0,1-.61-3.22h0a8.11,8.11,0,0,1,.19-1.69,8.58,8.58,0,0,1,6.73-6.6h0c30.21-5.91,68-26,79.65-56.12,7.28-19,2.94-39.34-13-60.52C968.43,1226,925,1142.69,907,1055.28a8.53,8.53,0,1,1,16.7-3.45c17.42,84.67,59.81,165.69,137.42,262.71,24.64,32.82,21.94,60,15.37,77.06-10.09,26.23-34.93,45.7-61.46,57.12a15.47,15.47,0,0,1,2.63,4.49,13.22,13.22,0,0,1,.84,5.47c38.55,23.25,60.94,52.48,61.54,81.73,28.18,99.86,9.89,210.51-7.81,317.52-3.77,22.82-7.52,45.54-10.79,67.93A8.54,8.54,0,0,1,1053,1933.16Z"/><path class="cls-7" d="M568.61,1615.25c-49,0-73.84-56.52-74.1-57.17-49.5-138.63,25-377,28.22-387.09,10.32-33,34-35.87,39.43-36.11,5-2.14,27.6-9.69,51.09,15.77,7.2,7.73,176.62,191.21,191.28,337.41,0,1,2.19,75.3-56.8,88.57l-1.88-8.32c52-11.71,50.26-76.9,50.16-79.66-14.33-143.11-187.28-330.33-189-332.19-21.52-23.33-41.14-13.93-42-13.5l-1,.49-1.11,0c-.85.13-22.67,0-32.1,30.14C530.1,1176,454,1419.3,502.43,1555c1,2.28,27.28,62,79.35,50.22l1.86,8.32A68.33,68.33,0,0,1,568.61,1615.25Z"/><path class="cls-7" d="M549.09,1142.35c-10.66-36-27.59-133.76-6.25-162.34,4.19-5.65,9.9-8.62,16.44-8.62v8.53c-3.91,0-7,1.64-9.61,5.18-17.73,23.76-4.28,114.73,7.58,154.82Z"/><path class="cls-7" d="M1098.08,1436.18a4.26,4.26,0,0,1-4.25-4c-8.81-125-37.58-201.29-49.88-233.9-33.67-89.28-78-171.8-128.1-238.66a4.27,4.27,0,1,1,6.83-5.11c50.59,67.5,95.29,150.74,129.26,240.75,12.4,33,41.5,110.11,50.39,236.32a4.28,4.28,0,0,1-3.95,4.55A1.56,1.56,0,0,1,1098.08,1436.18Z"/><path class="cls-11" d="M1072.57,1524.4a62.29,62.29,0,1,1-8.76-124.28l31.87-2.23,8.74,124.29Z"/><path class="cls-12" d="M1159.62,1455.83a62.31,62.31,0,1,1-66.51-57.78A62.3,62.3,0,0,1,1159.62,1455.83Z"/><path class="cls-13" d="M1128.55,1458a31.15,31.15,0,1,1-33.26-28.9A31.16,31.16,0,0,1,1128.55,1458Z"/><path class="cls-7" d="M1091.73,1525.66a63,63,0,0,1-30.8-7.53c-17-9.43-29-27.7-32.18-48.94-2.34-15.88,3.08-33.44,14.91-48.17,12.87-16,30.77-25.92,49.13-27.22a4.15,4.15,0,0,1,4.55,4,4.26,4.26,0,0,1-3.94,4.56c-15.77,1.1-31.87,10.09-43.08,24.08-10.37,12.87-15.13,28-13.13,41.56,2.76,18.61,13.17,34.58,27.86,42.73,17.12,9.42,39.8,8.5,65.56-2.79a4.27,4.27,0,0,1,3.43,7.82C1117.4,1523,1103.35,1525.66,1091.73,1525.66Z"/><path class="cls-7" d="M1069.08,1529.07c-16.92,0-30.82-4.53-41.49-13.59-19.78-16.71-28.53-45.92-21.73-72.72,7.31-28.86,28.29-42.43,70.17-45.4a4.36,4.36,0,0,1,4.55,4,4.26,4.26,0,0,1-3.95,4.55c-38.06,2.68-56.17,14-62.5,39-6,23.69,1.63,49.42,19,64.07,5.27,4.48,21.26,18,63.16,8.08a4.17,4.17,0,0,1,5.14,3.17,4.22,4.22,0,0,1-3.16,5.11A126.92,126.92,0,0,1,1069.08,1529.07Z"/><path class="cls-7" d="M1154.46,1467.83a4.15,4.15,0,0,1-1.53-.29,4.26,4.26,0,0,1-2.45-5.52c3.39-8.71.48-23.07-7.24-35.79-7-11.6-16.36-19.09-24.91-20a4.25,4.25,0,0,1-3.77-4.73,4.06,4.06,0,0,1,4.7-3.78c11.34,1.26,22.75,10,31.28,24.12,9.17,15.09,12.26,32.09,7.92,43.31A4.32,4.32,0,0,1,1154.46,1467.83Z"/><path class="cls-5" d="M246,1956.76l159.51-532.17s68.46-381.24-193.9-268.77c0,0-91.21,46.71-108.53,203.17L24.36,1956.76Z"/><path class="cls-4" d="M351.75,1956.76l93.93-605.16s43.82-223.25-142.34-259.36c0,0-173.33,37.38-211.72,218.14L-.57,1956.76Z"/><path class="cls-7" d="M399.43,1658.22a8.32,8.32,0,0,1-1.55-.16,8.51,8.51,0,0,1-6.84-9.91l4.7-25.44c47.14-255.89,66.65-361.81-10.57-472.24a8.53,8.53,0,0,1,14-9.77C480.47,1257,460.58,1365,412.5,1625.79l-4.68,25.42A8.55,8.55,0,0,1,399.43,1658.22Z"/></g></svg>