<svg xmlns="http://www.w3.org/2000/svg" xmlns:xlink="http://www.w3.org/1999/xlink" viewBox="0 0 106.8 149.33"><defs><style>.cls-1{fill:none;}.cls-2{clip-path:url(#clip-path);}.cls-3{fill:#a4def6;}.cls-4{fill:#46c6e6;}.cls-5{fill:#6fcff3;}.cls-6{fill:#5c79bc;}.cls-7{fill:#4f69a3;}</style><clipPath id="clip-path" transform="translate(-14.44 -12.72)"><circle class="cls-1" cx="68.14" cy="68.14" r="68.14"/></clipPath></defs><title>placeholder-man_1</title><g id="Layer_2" data-name="Layer 2"><g id="Capa_1" data-name="Capa 1"><g class="cls-2"><path class="cls-3" d="M24.36,124.41a25,25,0,0,1,13.21-10.1l19.34-7.17H75.37l19.33,7.17a25,25,0,0,1,13.21,10.1Z" transform="translate(-14.44 -12.72)"/><path class="cls-4" d="M91.36,162.05h29.88c0-5.11-.34-12.38-.34-12.38-1.75-30.55-24-35.36-24-35.36C79.52,110.11,89,137,89,137,88.53,143.44,89.49,152.14,91.36,162.05Z" transform="translate(-14.44 -12.72)"/><rect class="cls-3" x="39.03" y="76.29" width="25.35" height="24.71"/><path class="cls-5" d="M78.81,100.5V89H53.46V94.7C60.69,100.72,69.4,101.48,78.81,100.5Z" transform="translate(-14.44 -12.72)"/><path class="cls-4" d="M105.8,162.05c.48-13.33.33-17,.21-21.53-.26-10.13-2.43-18.68-9.1-26.2h0l-18.07-5.89s3.8,6.65-12.81,6.65c0,0-10.94-.43-12.54-6.65l-18.35,5.89s-15.68,3.86-18.37,20.37l9.22,17-.33,10.41Z" transform="translate(-14.44 -12.72)"/><path class="cls-6" d="M96.31,52.2c0-5.88-.25-11.74-.11-17.6.09-3.75.44-2.79-3.91-3.2-6-.57-8,10.61-8.45,15.45-.58,6.67.86,13.85,2,20.35.4,2.35.29,7,2.75,8.15,2.1,1,4.3-1.38,5.4-3.09,2.54-4,2.09-10,2.26-14.49C96.29,55.91,96.31,54.05,96.31,52.2Z" transform="translate(-14.44 -12.72)"/><path class="cls-3" d="M93.71,85.57c-2.57,10-7.08,12.79-7.08,12.79l-6,1.18c-3.48-.44-9.49-1.86-9.49-1.86-13.82-4.7-17.82-6-20-11.22C51,86.23,40.23,48.73,40.23,48.73,38.46,29.42,58.67,25.4,61.72,24.9c3-.7,22.26-6,27.94,12.49A100.62,100.62,0,0,1,93.71,85.57Z" transform="translate(-14.44 -12.72)"/><path class="cls-7" d="M38.15,31c-6.71,3.24-6.94,9.24-6.63,16,.25,5.29,1.88,9.8,3.77,14.92,3.22,8.75,3.22,8.75,6.08,13.77A58.69,58.69,0,0,0,51.55,87.41c-1.66-6.58-2.12-11.5-3.64-16.55a31.88,31.88,0,0,1,1.42-20.42s1.53-4.14,7.81-5.32h0L38.15,31" transform="translate(-14.44 -12.72)"/><path class="cls-3" d="M49.19,69.56s-3.42-7.45-8.79-3c0,0-2.45,1.91.57,6.89,0,0,4.37,7.16,9.61,3.2Z" transform="translate(-14.44 -12.72)"/><path class="cls-7" d="M48.65,52.2s0,13.32,2.47,20.39l-2.59.52S47.16,64,42.46,63.86Z" transform="translate(-14.44 -12.72)"/><path class="cls-6" d="M99.63,23.65c21.61,22-43.76,21.78-43.76,21.78S49,48.6,38.15,31c0,0-2.93-13.76,28-18.09C66.14,12.91,86.57,10.4,99.63,23.65Z" transform="translate(-14.44 -12.72)"/><path class="cls-4" d="M42.37,162.05H14.44s.1-6.63.11-7.1a131.67,131.67,0,0,1,1.8-19.52c1.68-9.18,6.14-17.33,15.95-19.66,4.5-1.07,8.49,1.65,10.93,5.35C43.23,121.12,47.67,126.6,42.37,162.05Z" transform="translate(-14.44 -12.72)"/></g></g></g></svg>