<svg xmlns="http://www.w3.org/2000/svg" xmlns:xlink="http://www.w3.org/1999/xlink" viewBox="0 0 103.96 145.4"><defs><style>.cls-1{fill:none;}.cls-2{clip-path:url(#clip-path);}.cls-3{fill:#5c79bc;}.cls-4{fill:#a4def6;}.cls-5{fill:#6fcff3;}.cls-6{fill:#46c6e6;}</style><clipPath id="clip-path" transform="translate(-23.04 -16.65)"><circle class="cls-1" cx="68.14" cy="68.14" r="68.14"/></clipPath></defs><title>placeholder-woman_1</title><g id="Layer_2" data-name="Layer 2"><g id="Capa_1" data-name="Capa 1"><g class="cls-2"><path class="cls-3" d="M56.75,18.72s-23.32,7-21.12,43.93v79.58H62.15Z" transform="translate(-23.04 -16.65)"/><path class="cls-3" d="M54.1,42.58V156.9h50.72V60.6s3.34-36.95-20.9-41.48C83.92,19.12,54.1,13.72,54.1,42.58Z" transform="translate(-23.04 -16.65)"/><rect class="cls-4" x="29.79" y="99.13" width="35.27" height="17.46"/><path class="cls-4" d="M127,162.05H103.13l-4.26-17.23s-3.47-26.14,14.46-26.5c0,0,9.3,6.52,11.84,21.86C125.17,140.18,127.17,152.45,127,162.05Z" transform="translate(-23.04 -16.65)"/><path class="cls-4" d="M44.13,162.05l3.22-13s5.7-29-12.22-29.37c0,0-13,10.7-12.05,42.37H44.13" transform="translate(-23.04 -16.65)"/><rect class="cls-4" x="39.12" y="63.87" width="21.76" height="31.86"/><path class="cls-5" d="M83.92,93.53v-13H62.15V99.25C69.33,99,77.85,97.73,83.92,93.53Z" transform="translate(-23.04 -16.65)"/><path class="cls-4" d="M33.3,122.55a23.83,23.83,0,0,1,12.56-9.61l18.4-6.81H81.81l22.49,6.81a23.79,23.79,0,0,1,12.56,9.61Z" transform="translate(-23.04 -16.65)"/><path class="cls-6" d="M37.81,148.43v13.62h70.64l-.83-15.81c-.88-30.46,2.52-30.47,2.52-30.47a21.93,21.93,0,0,0-5.84-2.83l-17.71-5s-3.84,16.51-18.45,16.51c0,0-11.32-6.09-8.25-16.67l-14,5.2a29.51,29.51,0,0,0-10.73,6.74S37.63,121.21,37.81,148.43Z" transform="translate(-23.04 -16.65)"/><path class="cls-4" d="M86.29,83.06a14.48,14.48,0,0,1-3.23,4.71A39.76,39.76,0,0,1,70.58,96c-5.69,2.34-14.28,2.64-18.81-2-3.66-3.8-5.67-9.56-7.26-14.49-3.1-9.6-3.06-20.08-2.27-30,.18-2.28.41-4.55.79-6.8C46.57,20.85,65.17,20.9,65.17,20.9c14-.61,26.86,6,29,20.82.83,5.67-.26,11.76-.54,17.42a45.46,45.46,0,0,1-2.06,12.3C90.22,75.49,88,79.15,86.29,83.06Z" transform="translate(-23.04 -16.65)"/><path class="cls-4" d="M88.1,66.49S90,58.75,95.91,62c0,0,2.68,1.36.75,6.67,0,0-2.82,7.64-8.56,4.85Z" transform="translate(-23.04 -16.65)"/><path class="cls-3" d="M40.82,45.07c-1-29.83,27.32-28.41,27.32-28.41C96,17.8,97.36,30.41,97.36,30.41c3.37,16-1.45,31.54-1.45,31.54C90,60.66,89,68.57,89,68.57c.62-12.68-.42-13.44-.42-13.44A126,126,0,0,1,73,54.06l-.4-8.84L70.46,53.6a142,142,0,0,1-26.09-3.44s-3.55.25-3.55,11Z" transform="translate(-23.04 -16.65)"/></g></g></g></svg>