<svg xmlns="http://www.w3.org/2000/svg" xmlns:xlink="http://www.w3.org/1999/xlink" viewBox="0 0 2124.71 1643.16"><defs><style>.cls-1{mask:url(#mask);filter:url(#luminosity-noclip-4);}.cls-11,.cls-13,.cls-15,.cls-2,.cls-4,.cls-6{mix-blend-mode:multiply;}.cls-2{fill:url(#radial-gradient);}.cls-3{mask:url(#mask-2);filter:url(#luminosity-noclip-5);}.cls-4{fill:url(#radial-gradient-2);}.cls-5{mask:url(#mask-3);filter:url(#luminosity-noclip-6);}.cls-6{fill:url(#radial-gradient-3);}.cls-7{isolation:isolate;}.cls-8{fill:url(#linear-gradient);}.cls-9{fill:#fff;}.cls-10{mask:url(#mask-4);}.cls-11,.cls-13,.cls-15{opacity:0.5;}.cls-11{fill:url(#radial-gradient-4);}.cls-12{mask:url(#mask-5);}.cls-13{fill:url(#radial-gradient-5);}.cls-14{mask:url(#mask-6);}.cls-15{fill:url(#radial-gradient-6);}.cls-16{fill:url(#linear-gradient-2);}.cls-17{filter:url(#luminosity-noclip-3);}.cls-18{filter:url(#luminosity-noclip-2);}.cls-19{filter:url(#luminosity-noclip);}</style><filter id="luminosity-noclip" x="0" y="-9277.19" width="1844" height="32766" filterUnits="userSpaceOnUse" color-interpolation-filters="sRGB"><feFlood flood-color="#fff" result="bg"/><feBlend in="SourceGraphic" in2="bg"/></filter><mask id="mask" x="0" y="-9277.19" width="1844" height="32766" maskUnits="userSpaceOnUse"><g class="cls-19"/></mask><radialGradient id="radial-gradient" cx="919.06" cy="588.18" r="622.94" gradientTransform="translate(-438.3 624.93) scale(1.48 0.49)" gradientUnits="userSpaceOnUse"><stop offset="0" stop-color="#fff"/><stop offset="0.08" stop-color="#e4e4e4"/><stop offset="0.34" stop-color="#949494"/><stop offset="0.57" stop-color="#545454"/><stop offset="0.77" stop-color="#272727"/><stop offset="0.91" stop-color="#0a0a0a"/><stop offset="1"/></radialGradient><filter id="luminosity-noclip-2" x="981.79" y="-9277.19" width="792.59" height="32766" filterUnits="userSpaceOnUse" color-interpolation-filters="sRGB"><feFlood flood-color="#fff" result="bg"/><feBlend in="SourceGraphic" in2="bg"/></filter><mask id="mask-2" x="981.79" y="-9277.19" width="792.59" height="32766" maskUnits="userSpaceOnUse"><g class="cls-18"/></mask><radialGradient id="radial-gradient-2" cx="965.45" cy="224.28" r="490" gradientTransform="matrix(0.74, 0, 0, 1.41, 666.08, 356.2)" xlink:href="#radial-gradient"/><filter id="luminosity-noclip-3" x="1165.67" y="-9277.19" width="777.95" height="32766" filterUnits="userSpaceOnUse" color-interpolation-filters="sRGB"><feFlood flood-color="#fff" result="bg"/><feBlend in="SourceGraphic" in2="bg"/></filter><mask id="mask-3" x="1165.67" y="-9277.19" width="777.95" height="32766" maskUnits="userSpaceOnUse"><g class="cls-17"/></mask><radialGradient id="radial-gradient-3" cx="1239.37" cy="695.14" r="527.44" gradientTransform="translate(640.6 380.26) scale(0.74 0.91)" xlink:href="#radial-gradient"/><linearGradient id="linear-gradient" x1="991" y1="1643.16" x2="991" y2="565.91" gradientUnits="userSpaceOnUse"><stop offset="0" stop-color="#ae700e"/><stop offset="0.03" stop-color="#bd8420"/><stop offset="0.08" stop-color="#d29f37"/><stop offset="0.14" stop-color="#e2b54a"/><stop offset="0.21" stop-color="#efc659"/><stop offset="0.29" stop-color="#f8d163"/><stop offset="0.41" stop-color="#fed869"/><stop offset="0.73" stop-color="#ffda6b"/><stop offset="0.95" stop-color="#ffe181"/></linearGradient><filter id="luminosity-noclip-4" x="0" y="607.9" width="1844" height="610.24" filterUnits="userSpaceOnUse" color-interpolation-filters="sRGB"><feFlood flood-color="#fff" result="bg"/><feBlend in="SourceGraphic" in2="bg"/></filter><mask id="mask-4" x="0" y="607.9" width="1844" height="610.24" maskUnits="userSpaceOnUse"><g class="cls-1"><ellipse class="cls-2" cx="922" cy="913.02" rx="922" ry="305.12"/></g></mask><radialGradient id="radial-gradient-4" cx="919.06" cy="588.18" r="622.94" gradientTransform="translate(-438.3 624.93) scale(1.48 0.49)" gradientUnits="userSpaceOnUse"><stop offset="0" stop-color="gray"/><stop offset="0.27" stop-color="#ababab"/><stop offset="0.6" stop-color="#d8d8d8"/><stop offset="0.85" stop-color="#f5f5f5"/><stop offset="1" stop-color="#fff"/></radialGradient><filter id="luminosity-noclip-5" x="981.79" y="0" width="792.59" height="1346.04" filterUnits="userSpaceOnUse" color-interpolation-filters="sRGB"><feFlood flood-color="#fff" result="bg"/><feBlend in="SourceGraphic" in2="bg"/></filter><mask id="mask-5" x="981.79" y="0" width="792.59" height="1346.04" maskUnits="userSpaceOnUse"><g class="cls-3"><ellipse class="cls-4" cx="1378.09" cy="673.02" rx="361.36" ry="692.28" transform="translate(-132.01 405.27) rotate(-15.98)"/></g></mask><radialGradient id="radial-gradient-5" cx="965.45" cy="224.28" r="490" gradientTransform="matrix(0.74, 0, 0, 1.41, 666.08, 356.2)" xlink:href="#radial-gradient-4"/><filter id="luminosity-noclip-6" x="1165.67" y="532.02" width="777.95" height="954.81" filterUnits="userSpaceOnUse" color-interpolation-filters="sRGB"><feFlood flood-color="#fff" result="bg"/><feBlend in="SourceGraphic" in2="bg"/></filter><mask id="mask-6" x="1165.67" y="532.02" width="777.95" height="954.81" maskUnits="userSpaceOnUse"><g class="cls-5"><ellipse class="cls-6" cx="1554.64" cy="1009.43" rx="388.97" ry="477.41"/></g></mask><radialGradient id="radial-gradient-6" cx="1239.37" cy="695.14" r="527.44" gradientTransform="translate(640.6 380.26) scale(0.74 0.91)" xlink:href="#radial-gradient-4"/><linearGradient id="linear-gradient-2" x1="991" y1="1643.16" x2="991" y2="844.95" gradientUnits="userSpaceOnUse"><stop offset="0" stop-color="#eeb314"/><stop offset="0" stop-color="#eeb415"/><stop offset="0.05" stop-color="#f3c030"/><stop offset="0.11" stop-color="#f8c946"/><stop offset="0.18" stop-color="#fbd157"/><stop offset="0.27" stop-color="#fdd662"/><stop offset="0.39" stop-color="#ffd969"/><stop offset="0.73" stop-color="#ffda6b"/><stop offset="0.95" stop-color="#ffe586"/></linearGradient></defs><g class="cls-7"><g id="Layer_2" data-name="Layer 2"><g id="Layer_1-2" data-name="Layer 1"><path class="cls-8" d="M1647,1593.16a50,50,0,0,1-50,50H385a50,50,0,0,1-50-50V615.92a50,50,0,0,1,50-50H700s29-1.06,47.07,22c22.8,30.34,57.12,76.75,68.46,88.08S834,697.08,866,697.08s731-1.91,731-1.91c27.61,0,50,14.38,50,42Z"/><rect class="cls-9" x="723.73" y="645.43" width="939.09" height="654.06" transform="translate(-93.96 1816.64) rotate(-72.44)"/><g class="cls-10"><ellipse class="cls-11" cx="922" cy="913.02" rx="922" ry="305.12"/></g><g class="cls-12"><ellipse class="cls-13" cx="1378.09" cy="673.02" rx="361.36" ry="692.28" transform="translate(-132.01 405.27) rotate(-15.98)"/></g><rect class="cls-9" x="1339.74" y="145.61" width="654.06" height="939.09" transform="translate(-108.86 554.52) rotate(-18.3)"/><g class="cls-14"><ellipse class="cls-15" cx="1554.64" cy="1009.43" rx="388.97" ry="477.41"/></g><rect class="cls-16" x="335" y="844.95" width="1312" height="798.21" rx="50"/></g></g></g></svg>