<svg id="Capa_1" data-name="Capa 1" xmlns="http://www.w3.org/2000/svg" xmlns:xlink="http://www.w3.org/1999/xlink" viewBox="0 0 1502.36 1502.36"><defs><style>.cls-1{fill:none;}.cls-2{clip-path:url(#clip-path);}.cls-3{fill:#fff;}.cls-4{fill:#192e35;}.cls-5{fill:#f7b6a0;}.cls-6{fill:#f2937c;}.cls-7{fill:#2c6496;}.cls-8{fill:#21263d;}.cls-9{fill:#e6f5fe;}.cls-10{fill:#cde0eb;}.cls-11{fill:#93b2c4;}.cls-12{fill:#a6cadf;}.cls-13{fill:#6e9fb7;}</style><clipPath id="clip-path"><circle class="cls-1" cx="746.1" cy="751.18" r="751.18"/></clipPath></defs><title>Artboard 48</title><g class="cls-2"><path class="cls-3" d="M486.49,1970.65l187.6-606.16S788,979.76,428.56,1075c0,0-154,27.37-222.59,273.22L86.84,1970.65Z"/><path class="cls-4" d="M1031,645.45c3.35-11.57,6.23-21.68,8.63-29.25,40.15-126.69,66.37-434.74-82.24-474.5-178.1-47.65-146,234.39-148.42,313.72-2.81,91.69-.83,190,44.31,271.68,17,30.78,56.31,76.41,93.27,69.8C987.4,789.58,1014.86,700.68,1031,645.45Z"/><path class="cls-5" d="M1033.72,548.46c.69,45.22-24.44,96.46-65.08,115.21-55.16,25.49-76.4-25.12-76.44-74.65,0-39.89,17.46-108.66,62.67-122.83C997.55,452.82,1033.18,511.34,1033.72,548.46Z"/><polygon class="cls-5" points="964.1 630.01 662.5 630.23 662.83 1005.27 964.39 1005.02 964.1 630.01"/><path class="cls-6" d="M872.17,837.68c30.25-63.5,48.25-127.74,43.17-207.64l-252.84.19.25,326C742.18,944,840,905.36,872.17,837.68Z"/><polygon class="cls-5" points="542.89 1058.05 670.47 962.8 954.12 962.8 1107.24 1058.05 542.89 1058.05"/><path class="cls-7" d="M1386.1,1970.65c-3.28-16.12-6.84-32.09-11-47.7l62.11-651.85c21.73-130.35-92.63-172.67-92.63-172.67l-380.2-154.7C803.81,1064.66,662.75,956.2,662.75,956.2L385.24,1097S295,1148.47,274.6,1315.5l29.72,655.15Z"/><path class="cls-4" d="M597.24,319.09c-73.16,38.31-55.12,110.06-61.17,181.61-2.5,29.4-11.2,58.24-15.17,86.84-18.49-29.29-29.3-127.3-31.86-161.37-15.91-211.76,49.88-343,4.92-149.55-10.48,45,115.45-95,159.53-108.45,62.82-19.24,45.3,37.24,30.49,104.47Z"/><path class="cls-5" d="M944.57,653.09c-17.29,68-45.5,125.49-101.48,170.78-54.78,44.29-113.86,71-177.47,31C615,823,578.25,771.83,554.45,718.51c-54.87-122.7-48.6-303.23,19.22-416.64,74.47-124.58,250-121.78,332.9-4.34C974.08,393.16,972.55,543.44,944.57,653.09Z"/><path class="cls-6" d="M983.89,600.36a8.16,8.16,0,0,1-7.52-5C956.18,547.86,960.78,499.76,987.3,481a8.17,8.17,0,1,1,9.43,13.34c-19.63,13.86-22,55.41-5.3,94.61a8.2,8.2,0,0,1-7.54,11.37Z"/><path class="cls-6" d="M974.06,535.62a8.17,8.17,0,0,1-5.16-14.49c15.9-13,42.32-6.87,50-4.69a8.17,8.17,0,1,1-4.46,15.72c-12.27-3.5-28-4.36-35.23,1.6A8,8,0,0,1,974.06,535.62Z"/><path class="cls-6" d="M836.64,576.31c.73,10.2-17.37,19.75-40.37,21.42s-42.26-5.28-43-15.44,17.35-19.75,40.39-21.38S835.91,566.16,836.64,576.31Z"/><path class="cls-6" d="M632.68,602.65c.76,10.18-17.32,19.74-40.32,21.4s-42.29-5.26-43-15.44,17.34-19.76,40.35-21.38S632,592.51,632.68,602.65Z"/><path class="cls-6" d="M679,636.44c-13.46,0-26.76-3.12-33.9-11-3.82-4.18-9.05-13.3-1.49-27.24,48.88-90,31.13-102.35,18.17-111.37a57.75,57.75,0,0,1-8.36-6.65,8.17,8.17,0,1,1,11.71-11.4,41.32,41.32,0,0,0,6,4.62C693.6,489.09,709.54,511,658,606c-3.17,5.81-1.49,7.65-.8,8.44,6.29,6.91,31.27,7.63,46.05,1.36a8.17,8.17,0,1,1,6.39,15C701.59,634.26,690.23,636.44,679,636.44Z"/><path class="cls-4" d="M564.91,488.7a10.6,10.6,0,0,1-6.39-19.05c18.2-13.81,53.59-23.69,93.28-6.09a10.59,10.59,0,1,1-8.58,19.36c-41.15-18.19-68.87,1.33-71.9,3.62A10.67,10.67,0,0,1,564.91,488.7Z"/><path class="cls-4" d="M737.79,474.06a10.59,10.59,0,0,1-7.35-18.23c26.17-25.15,70.84-22.51,96.19-4.31a10.6,10.6,0,0,1-12.39,17.2c-18-13-51.4-14.66-69.13,2.38A10.48,10.48,0,0,1,737.79,474.06Z"/><path class="cls-4" d="M957.35,141.7c16.55,0,3.6,59.23,18.77,68.31,33.87,20.22,3,47.66,13.15,82.28A1211.77,1211.77,0,0,1,1019.57,425c3,17.5,1.86,42.66,8.78,59.08-8-19.09-38.69-50.43-65.38-19.56-11.17,12.87-12.9,69.39-17.29,85.2-5.85,21-10.94,13.83-29.24,16.2-9.14-59-12.8-229-76.37-227.21-78.07,2.24-364.66,79-369.65-60-2.85-78.14,46.66-171.15,169-174.39C639.38,104.27,865.56,58.93,957.35,141.7Z"/><path class="cls-6" d="M690.11,709.34h-.63c-11.32-.16-27.77-4.48-41.66-24.27a8.16,8.16,0,1,1,13.35-9.39c8,11.35,17.56,17.17,28.53,17.3,15.3-.23,33.72-11.16,46.89-28.91a8.16,8.16,0,1,1,13.1,9.73C736.92,691,714.61,709.34,690.11,709.34Z"/><path class="cls-8" d="M618.49,529.53c1.56,13.78-3.89,25.73-12.2,26.63s-16.23-9.54-17.76-23.3,4-25.72,12.27-26.65S617,515.72,618.49,529.53Z"/><path class="cls-8" d="M797.89,509.72c1.54,13.79-3.94,25.7-12.21,26.63S769.45,526.81,768,513s3.9-25.74,12.21-26.64S796.38,495.91,797.89,509.72Z"/><path class="cls-3" d="M1443.07,1970.65l13.67-726.34s16.29-93.71-126.31-156.86L1009.81,962.23,857.94,1354S825.1,1659,824,1970.65Z"/><path class="cls-3" d="M565.71,1970.65l42-551.33L542.89,1017l-178.66,84.22C274.6,1159.44,263,1278.92,263,1278.92l-9.91,691.73Z"/><path class="cls-9" d="M1145.76,1970.65h424.53l-88.79-661.58s0-228.87-271.64-265.45c0,0-176.1,46.48-103.3,386.74Z"/><path class="cls-10" d="M477.35,1951.38a8.14,8.14,0,0,1-8.15-8c-1-44.65-10.89-93.11-21.39-144.43-23.52-115-47.74-233.57,30.84-313.6a13.48,13.48,0,0,1-.87-10.55,16.27,16.27,0,0,1,.93-2.34c-15.13-5-29.4-14.78-41.08-28.52-21.47-25.28-29.26-57.59-20.38-84.31,16-48.08,20.1-92.9,24-136.26,3.94-43.53,8-88.5,24.28-135.66a8.16,8.16,0,1,1,15.42,5.33c-15.64,45.27-19.43,87.3-23.46,131.79-4,44.28-8.14,90.09-24.76,140-7,21-.21,47.93,17.33,68.59,13.24,15.61,30.26,25,47.45,26.5a52.92,52.92,0,0,1,15.85-.52,9.41,9.41,0,0,1,1.22.21,7.58,7.58,0,0,1,2.28,1h0a0,0,0,0,0,0,0,8,8,0,0,1,2.13,1.94h0a7.1,7.1,0,0,1,1.08,1.9,8,8,0,0,1,.55,2.07,8.8,8.8,0,0,1-.13,2.72,8.22,8.22,0,0,1-1,2.52c-.22.33-.44.66-.68,1-8.89,11-16.33,16-22.14,18-80.05,74.45-56.12,191.52-32.91,305,10.17,49.8,20.7,101.25,21.73,147.35a8.14,8.14,0,0,1-8,8.32Z"/><path class="cls-10" d="M955.23,1948.31a7.94,7.94,0,0,1-2.91-.54,8.11,8.11,0,0,1-4.7-10.52c21.41-56.2,31.35-115.62,41-173,8.47-50.57,16.45-98.32,31.62-143.79,11.36-45.53-22.35-83.6-52.1-117.21-7.61-8.6-14.86-16.77-21-24.74q-1.74-2.19-3.57-4.77a8,8,0,0,1-1.24-2.64h0v0h0s0-.08,0-.11a0,0,0,0,0,0,0h0v0h0a.06.06,0,0,0,0,0h0s0,0,0,0v0a7.76,7.76,0,0,1-.14-2.59h0v-.11a8.94,8.94,0,0,1,.62-2.33,0,0,0,0,1,0,0s0,0,0,0h0a7.38,7.38,0,0,1,.35-.69v0h0v-.06a8.25,8.25,0,0,1,1.89-2.19h0s0,0,0,0a0,0,0,0,1,0,0s0,0,0,0a8.48,8.48,0,0,1,1.86-1.11h0s0,0,0,0h0a0,0,0,0,0,0,0h0l.81-.28c27-8.36,57.09-9.19,74.69-9.28,32.46-80.83,15.61-171.58-.66-259.42-5.9-31.76-12-64.6-15.57-96.24a8.19,8.19,0,0,1,7.19-9,8.42,8.42,0,0,1,9,7.2c3.5,31.07,9.56,63.64,15.4,95.11,17.05,92,34.7,187.11-2.4,273.71a8.19,8.19,0,0,1-7.51,4.94c-10.45,0-28.55,0-47.73,2.64a18.38,18.38,0,0,1,4.15,7.81,12.82,12.82,0,0,1-4.33,13.46c.09.11.18.23.28.33,30.81,34.79,69.15,78.1,55.54,132.56-14.93,44.88-22.83,92-31.19,141.91-9.76,58.24-19.85,118.45-41.86,176.17A8.11,8.11,0,0,1,955.23,1948.31Z"/><path class="cls-8" d="M1121.11,1639.35a8.16,8.16,0,0,1-8.1-7.38c-4.28-45.71-8.4-86.84-12.12-124.07-24.07-241-32.19-322.16,37.28-422.14a8.15,8.15,0,0,1,13.37,9.31c-66,95-58.7,168.34-34.42,411.2,3.72,37.27,7.82,78.44,12.13,124.14a8.18,8.18,0,0,1-7.36,8.9C1121.63,1639.33,1121.37,1639.35,1121.11,1639.35Z"/><path class="cls-8" d="M573,1789.58c-1.58,0-3.14,0-4.76-.16l.56-8.12c51,3.5,67.51-58.6,67.66-59.23,26-134.93-81.24-353.49-82.32-355.69-13.5-27.52-34.6-23.89-34.7-23.82l-1.06.2-1-.33c-.86-.28-20.69-6.33-37.61,18.83-1.39,2-137.43,204-130.14,341.37.29,2.39,8.08,64.16,58.91,67.67l-.55,8.12c-57.62-4-66.39-74.38-66.48-75.08C334.05,1562.9,467.34,1365.05,473,1356.69c18.47-27.41,40.87-23.57,46-22.27,5.22-.63,27.92-1.35,42.47,28.37,4.48,9,109.52,223.23,83,361.07C644.18,1724.77,626.87,1789.58,573,1789.58Z"/><path class="cls-8" d="M513.11,1337.66l-8.16,0c0-3.24,4.82-327,101.27-365.64l3,7.56C529.82,1011.41,513.22,1270.12,513.11,1337.66Z"/><path class="cls-8" d="M988.63,1447.65a3.5,3.5,0,0,1-1.23-.18,4.06,4.06,0,0,1-2.65-5.11c41.84-133.63,62.57-229.62,68-274.87,1-8.42,2.08-16.76,3.17-25,9.84-74.73,18.33-139.28-48.15-176.72a4.08,4.08,0,1,1,4-7.1c71.26,40.15,62,110.44,52.22,184.87-1.08,8.23-2.18,16.52-3.17,24.91-5.5,45.62-26.34,142.18-68.37,276.34A4,4,0,0,1,988.63,1447.65Z"/><path class="cls-11" d="M926.2,1510.71a59.52,59.52,0,0,1,47.43-109.18l28,12.15-47.42,109.18Z"/><path class="cls-12" d="M1030.23,1491a59.52,59.52,0,1,1-30.88-78.3A59.52,59.52,0,0,1,1030.23,1491Z"/><path class="cls-13" d="M1002.92,1479.17A29.77,29.77,0,1,1,987.47,1440,29.77,29.77,0,0,1,1002.92,1479.17Z"/><path class="cls-8" d="M982.38,1530.46h-.26c-37.2-2.52-54.8-17.83-63-30.22-10.25-15.48-12.36-36.28-5.66-55.63,5-14.49,17.32-26.94,33.83-34.21,18-7.89,37.55-8.43,53.7-1.43a4.07,4.07,0,1,1-3.25,7.47c-13.85-6-31.47-5.47-47.15,1.41-14.45,6.36-25.18,17.07-29.42,29.4-5.88,17-4.11,35.12,4.75,48.48,10.32,15.6,30,24.78,56.76,26.59a4.08,4.08,0,0,1-.28,8.15Z"/><path class="cls-8" d="M948.54,1522.9a4,4,0,0,1-1-.1c-29.14-7.34-47.8-20.63-55.51-39.53-9.42-22.85-3.92-51.47,13.67-71.16,18.94-21.27,42.7-23.51,79.49-7.51a4.05,4.05,0,0,1,2.11,5.34,4.11,4.11,0,0,1-5.36,2.13c-33.42-14.53-53.8-12.94-70.16,5.46-15.55,17.44-20.45,42.61-12.21,62.67,2.48,6.1,10.07,24.63,49.94,34.69a4.07,4.07,0,0,1-1,8Z"/><path class="cls-8" d="M1022.41,1499.38a4.08,4.08,0,0,1-2.67-7.14c6.7-5.88,10.58-19.35,9.65-33.53-.84-12.94-5.44-23.41-12.28-28a4.07,4.07,0,1,1,4.53-6.77c9.06,6.07,14.84,18.54,15.88,34.24,1.08,16.82-3.78,32.58-12.41,40.16A4.13,4.13,0,0,1,1022.41,1499.38Z"/></g></svg>