<svg xmlns="http://www.w3.org/2000/svg" xmlns:xlink="http://www.w3.org/1999/xlink" viewBox="0 0 2681.52 2489.55"><defs><style>.cls-1{fill:url(#linear-gradient);}.cls-2{fill:url(#linear-gradient-2);}.cls-3{isolation:isolate;}.cls-4{fill:#694b87;opacity:0.2;mix-blend-mode:multiply;}.cls-5{fill:#fff;}.cls-6{clip-path:url(#clip-path);}.cls-7{fill:url(#New_Gradient_Swatch_7);}.cls-8{fill:#fffad9;opacity:0.91;}.cls-9{clip-path:url(#clip-path-2);}.cls-10{fill:url(#New_Gradient_Swatch_7-2);}</style><linearGradient id="linear-gradient" x1="1778.57" y1="1053.45" x2="1025.97" y2="3144.03" gradientTransform="matrix(1, 0, 0, 1, -29.28, 15.91)" gradientUnits="userSpaceOnUse"><stop offset="0" stop-color="#e6d6eb"/><stop offset="1" stop-color="#2d4ded"/></linearGradient><linearGradient id="linear-gradient-2" x1="834.6" y1="1254.57" x2="82" y2="3345.13" gradientTransform="translate(53.3 58.3)" xlink:href="#linear-gradient"/><clipPath id="clip-path"><rect class="cls-1" x="1273.19" y="606.98" width="944.66" height="944.66" transform="translate(136.59 -194.7) rotate(6.64)"/></clipPath><linearGradient id="New_Gradient_Swatch_7" x1="1701.69" y1="1678.96" x2="1925.21" y2="763.6" gradientTransform="translate(105.66 -182.29) rotate(6.64)" gradientUnits="userSpaceOnUse"><stop offset="0" stop-color="#5871ed"/><stop offset="1" stop-color="#9ba0eb"/></linearGradient><clipPath id="clip-path-2"><rect class="cls-2" x="411.91" y="850.43" width="944.66" height="944.66" transform="translate(-236.37 193.25) rotate(-11.01)"/></clipPath><linearGradient id="New_Gradient_Swatch_7-2" x1="757.71" y1="1880.07" x2="981.23" y2="964.71" gradientTransform="translate(-172.92 240.3) rotate(-11.01)" xlink:href="#New_Gradient_Swatch_7"/></defs><title>notfound</title><g class="cls-3"><g id="Layer_4" data-name="Layer 4"><rect class="cls-4" x="1263.34" y="604.6" width="1119.45" height="1142.56" transform="translate(149.78 -204.84) rotate(6.71)"/><rect class="cls-5" x="1189.24" y="503.99" width="1119.45" height="1142.56" transform="translate(137.53 -196.87) rotate(6.71)"/><rect class="cls-5" x="1224.06" y="557.84" width="1042.93" height="1042.93" transform="translate(136.59 -194.7) rotate(6.64)"/><rect class="cls-1" x="1273.19" y="606.98" width="944.66" height="944.66" transform="translate(136.59 -194.7) rotate(6.64)"/><g class="cls-6"><path class="cls-7" d="M1163.52,1191.4s226.9-416.62,361.26-401,264.7,497.24,264.7,497.24,183.52-181.88,248.9-174.26c88,10.25,215.26,323.39,215.26,323.39l-63.14,329.43-1063.13-155.5Z"/><circle class="cls-8" cx="1987.9" cy="843.21" r="113.59" transform="translate(-13.99 1652.63) rotate(-45)"/></g><polygon class="cls-4" points="1657.68 1864.87 536.55 2081.77 321.05 946.62 1442.18 729.73 1657.68 1864.87"/><polygon class="cls-5" points="1556.39 1783.84 435.26 2000.74 219.76 865.59 1340.89 648.69 1556.39 1783.84"/><rect class="cls-5" x="362.78" y="801.29" width="1042.93" height="1042.93" transform="translate(-236.37 193.25) rotate(-11.01)"/><rect class="cls-2" x="411.91" y="850.43" width="944.66" height="944.66" transform="translate(-236.37 193.25) rotate(-11.01)"/><g class="cls-9"><path class="cls-10" d="M363.65,1606.08s89.85-465.8,222.64-491.64,403,393.55,403,393.55,119.71-229,184.32-241.55c87-16.92,303.2,242.88,303.2,242.88l39.75,333.06L456.38,2016.64Z"/><circle class="cls-8" cx="1043.6" cy="1024.27" r="113.59" transform="translate(-418.6 1037.94) rotate(-45)"/></g></g></g></svg>